<?xml version="1.0" encoding="utf-8"?>
<!-- Generator: Adobe Illustrator 23.1.1, SVG Export Plug-In . SVG Version: 6.00 Build 0)  -->
<svg version="1.1" id="Layer_1" xmlns="http://www.w3.org/2000/svg" xmlns:xlink="http://www.w3.org/1999/xlink" x="0px" y="0px"
	 width="30px" height="30px" viewBox="0 0 30 30" style="enable-background:new 0 0 30 30;" xml:space="preserve">
<path d="M4.6,13.6c6.5-2.8,10.7-4.7,12.9-5.6c6.1-2.6,7.4-3,8.2-3c0.2,0,0.6,0,0.9,0.3c0.3,0.1,0.3,0.4,0.3,0.6s0.1,0.5,0,0.9
	c-0.3,3.5-1.7,11.9-2.4,15.9c-0.4,1.7-0.9,2.2-1.5,2.3c-1.3,0.1-2.3-0.9-3.5-1.7c-1.9-1.2-3-2-5-3.3c-2.2-1.4-0.8-2.2,0.4-3.5
	c0.4-0.4,6-5.5,6.1-5.9c0-0.1,0-0.3-0.1-0.4s-0.4-0.1-0.4-0.1c-0.2,0.1-3.3,2.1-9.3,6.2c-0.9,0.6-1.7,0.9-2.4,0.9
	c-0.8,0-2.3-0.4-3.5-0.8C3.9,16,2.9,15.7,3,15C3,14.5,3.5,14,4.6,13.6z"/>
</svg>
