<?xml version="1.0" encoding="utf-8"?>
<!-- Generator: Adobe Illustrator 23.1.1, SVG Export Plug-In . SVG Version: 6.00 Build 0)  -->
<svg version="1.1" id="Layer_1" xmlns="http://www.w3.org/2000/svg" xmlns:xlink="http://www.w3.org/1999/xlink" x="0px" y="0px"
	 width="30px" height="29.9px" viewBox="0 0 30 29.9" style="enable-background:new 0 0 30 29.9;" xml:space="preserve">
<path d="M14.9,6.5c1.4,0,2.6,1.2,2.6,2.6s-1.2,2.6-2.6,2.6s-2.6-1.2-2.6-2.6C12.3,7.7,13.5,6.5,14.9,6.5L14.9,6.5z M14.9,15.3
	c3.4,0,6.2-2.8,6.2-6.2s-2.8-6.2-6.2-6.2c-3.4,0-6.2,2.8-6.2,6.2S11.5,15.3,14.9,15.3 M17.4,20.3c1.3-0.3,2.5-0.8,3.6-1.5
	c0.8-0.5,1.1-1.7,0.6-2.5s-1.7-1.1-2.5-0.6l0,0c-2.5,1.6-5.8,1.6-8.3,0c-0.8-0.5-2-0.3-2.5,0.6l0,0c-0.5,0.8-0.3,2,0.6,2.5
	c1.1,0.7,2.3,1.2,3.6,1.5l-3.6,3.5c-0.7,0.7-0.7,1.9,0,2.6c0.7,0.7,1.9,0.7,2.6,0l0,0l3.4-3.4l3.4,3.4c0.7,0.7,1.9,0.7,2.6,0l0,0
	c0.7-0.7,0.7-1.9,0-2.6l0,0L17.4,20.3"/>
</svg>
