<?xml version="1.0" encoding="utf-8"?>
<!-- Generator: Adobe Illustrator 24.1.1, SVG Export Plug-In . SVG Version: 6.00 Build 0)  -->
<svg version="1.0" id="Layer_1" xmlns="http://www.w3.org/2000/svg" xmlns:xlink="http://www.w3.org/1999/xlink" x="0px" y="0px"
	 viewBox="0 0 20 20" style="enable-background:new 0 0 20 20;" xml:space="preserve">
<style type="text/css">
	.st0{fill:#F7F6F2;}
</style>
<path class="st0" d="M18,16c-0.5,0-1,0.2-1.3,0.5L4,10.2c0-0.1,0-0.1,0-0.1C4,10,4,9.9,4,9.9l12.7-6.3c0.4,0.3,0.8,0.5,1.3,0.5
	c1.1,0,2-0.9,2-2c0-1.1-0.9-2-2-2s-2,0.9-2,2c0,0.1,0,0.1,0,0.2L3.3,8.5C3,8.2,2.5,8,2,8c-1.1,0-2,0.9-2,2s0.9,2,2,2
	c0.5,0,1-0.2,1.3-0.5L16,17.9c0,0.1,0,0.1,0,0.1c0,1.1,0.9,2,2,2s2-0.9,2-2C20,16.9,19.1,16,18,16z"/>
</svg>
