<?xml version="1.0" encoding="utf-8"?>
<!-- Generator: Adobe Illustrator 23.1.1, SVG Export Plug-In . SVG Version: 6.00 Build 0)  -->
<svg version="1.1" id="Layer_1" xmlns="http://www.w3.org/2000/svg" xmlns:xlink="http://www.w3.org/1999/xlink" x="0px" y="0px"
	 width="30px" height="30px" viewBox="0 0 30 30" style="enable-background:new 0 0 30 30;" xml:space="preserve">
<path d="M22.9,15c0,0,3.2-4.5,3.4-5.9c0.1-0.6-0.2-0.8-0.6-0.8c0,0-1.8,0-2.7,0c-0.6,0-0.9,0.2-1,0.6c0,0-1.5,3.2-3.3,5.1
	c-0.6,0.6-0.9,0.8-1.2,0.8c-0.2,0-0.4-0.2-0.4-0.8V8.9c0-0.7-0.1-1-0.6-1H12c-0.3,0-0.6,0.2-0.6,0.5c0,0.6,1,0.8,1,2.6v4
	c0,0.7-0.1,1-0.4,1c-1,0-3.2-3.3-4.4-7C7.4,8.3,7,8,6.4,8H3.7C3.3,8,3,8.2,3,8.6c0,0.7,0.9,4.2,4.2,8.6c2.2,3,5.2,4.7,7.9,4.7
	c1.6,0,2-0.2,2-1v-2.3c0-0.6,0.2-0.8,0.6-0.8s1,0.2,2.6,1.7c1.8,1.8,2,2.5,3,2.5h3.1c0.3,0,0.6-0.2,0.6-0.6c0-0.7-0.9-1.9-2.3-3.4
	c-0.6-0.7-1.5-1.6-1.8-1.9C22.4,15.7,22.6,15.5,22.9,15z"/>
</svg>
