<?xml version="1.0" encoding="utf-8"?>
<!-- Generator: Adobe Illustrator 23.1.1, SVG Export Plug-In . SVG Version: 6.00 Build 0)  -->
<svg version="1.1" id="Layer_1" xmlns="http://www.w3.org/2000/svg" xmlns:xlink="http://www.w3.org/1999/xlink" x="0px" y="0px"
	 width="30px" height="30px" viewBox="0 0 30 30" style="enable-background:new 0 0 30 30;" xml:space="preserve">
<path d="M10,11.6h2.2v-1v-1V9.3c0-1.6,0.3-2.7,0.7-3.3c0.8-1,1.9-1.6,3.3-1.6c0.8,0,1.6,0,2.2,0.1s1,0.1,1.3,0.2L20,4.9l-0.5,3.1
	c-0.6-0.2-1.2-0.2-1.7-0.2c-1,0-1.6,0.3-1.6,1.1v0.3v1v1h3.4l-0.2,3.1h-3.2v11.2h-4V14.8h-2.2L10,11.6L10,11.6z"/>
</svg>
